<svg xmlns="http://www.w3.org/2000/svg" version="1.1" xmlns:xlink="http://www.w3.org/1999/xlink" xmlns:svgjs="http://svgjs.dev/svgjs" width="1500" height="1500" viewBox="0 0 1500 1500"><rect width="1500" height="1500" fill="#000000"></rect><g transform="matrix(0.6666666666666666,0,0,0.6666666666666666,250.09640933636013,286.3757085020243)"><svg viewBox="0 0 266 247" data-background-color="#c8c8c8" preserveAspectRatio="xMidYMid meet" height="1392" width="1500" xmlns="http://www.w3.org/2000/svg" xmlns:xlink="http://www.w3.org/1999/xlink"><g id="tight-bounds" transform="matrix(1,0,0,1,-0.02547185165707333,-0.09999999999999432)"><svg viewBox="0 0 266.0510629222116 247.2" height="247.2" width="266.0510629222116"><g><svg viewBox="0 0 395.52 367.4954083103471" height="247.2" width="266.0510629222116"><g transform="matrix(1,0,0,1,0,185.44850631325775)"><svg viewBox="0 0 395.52 182.04690199708938" height="182.04690199708938" width="395.52"><g id="textblocktransform"><svg viewBox="0 0 395.52 182.04690199708938" height="182.04690199708938" width="395.52" id="textblock"><g><svg viewBox="0 0 395.52 127.20882493685802" height="127.20882493685802" width="395.52"><path d="M394.594 27.284C392.735 14.08 387.435 10.409 387.435 10.409 371.165-3.192 350.86-0.26 332.619 1.694 300.414 1.773 268.339 4.678 236.208 6.236 168.767 6.474 100.749 2.566 33.643 12.205 27.339 15.162-6.54 12.786 1.121 28.974 3.129 35.708 10.456 43.182 10.232 49.361 11.236 50.444 12.631 47.962 13.226 49.52 15.309 53.719 18.711 51.738 21.501 54.22 17.614 60.849 20.403 66.368 23.062 72.152 18.377 73.657 12.371 72.944 9.675 77.935 9.396 81.553 7.89 80.867 6.235 80.708 5.026 80.603 2.59 80.999 2.999 82.134 4.394 86.016-1.594 88.261 2.162 92.064-0.422 96.184 3.948 99.749 3.353 104.212 3.278 105.11 3.687 105.875 4.338 106.087 7.22 107.222 3.018 109.441 3.464 111.844 33.029 128.27 65.104 116.914 95.394 124.467 103.259 119.185 97.346 126.342 100.489 125.233 102.943 123.939 104.728 129.3 107.499 126.263 107.927 125.391 107.276 123.331 108.8 123.728 109.6 123.939 110.307 123.886 110.418 122.671 110.586 120.849 109.117 121.985 108.726 121.034 112.947 116.228 111.906 127.662 115.866 127.187 115.68 125.787 114.528 123.78 116.889 124.044 119.232 122.037 119.306 120.374 121.389 124.89 121.463 125.867 121.835 126.553 122.43 127.029 128.938 122.117 135.409 128.772 142.233 126.553 146.417 124.124 150.433 127.874 154.672 126.949 156.16 126.21 157.666 124.89 159.098 127.108 176.632 127.583 195.319 125.603 211.943 127.187 256.364 124.229 303.836 128.402 350.674 124.493 361.719 122.988 373.192 120.849 383.958 119.132 383.958 119.132 392.679 114.432 392.679 93.305S394.538 74.819 394.817 57.997C395.096 41.175 396.398 40.488 394.538 27.284Z" opacity="1" fill="#ffffff" data-fill-palette-color="tertiary"></path><g transform="matrix(1,0,0,1,55.76832,26.068561146666667)"><svg width="283.98335999999995" viewBox="1.35 -35.25 187.23000000000002 49.5" height="75.07170264352469" data-palette-color="#c8c8c8"><path d="M22.95 0.25L17.1 0 10.7 0.25Q9.25 0.25 9.25-0.35L9.25-0.35Q9.25-0.9 11.05-1.2L11.05-1.2Q14.8-1.9 14.8-5.1L14.8-5.1 14.8-27.85Q14.8-29.45 14.2-29.83 13.6-30.2 11.95-30.2L11.95-30.2 7.85-30.2Q6.55-30.2 5.4-29.7 4.25-29.2 3.85-28.45L3.85-28.45Q3.45-27.65 2.83-27 2.2-26.35 1.7-26.35L1.7-26.35Q1.35-26.35 1.35-26.95L1.35-26.95Q1.35-27.4 1.6-28L1.6-28Q2.7-30.25 3.15-33.55L3.15-33.55Q3.3-34.7 4-34.7L4-34.7Q4.4-34.7 5.25-33.1L5.25-33.1Q5.8-32.1 8.75-32.1L8.75-32.1 27.8-32.1Q29.7-32.1 30.7-32.8L30.7-32.8Q31.1-33.05 31.6-33.55L31.6-33.55Q32.15-34.05 32.5-34.33 32.85-34.6 33.2-34.6L33.2-34.6Q33.55-34.6 33.55-33.45L33.55-33.45 33.5-33Q33.1-31.35 32.9-30.13 32.7-28.9 32.7-28.05L32.7-28.05 32.7-27.45Q32.7-26.95 32.48-26.4 32.25-25.85 31.9-25.85L31.9-25.85Q31.35-25.85 30.95-27.9L30.95-27.9Q30.6-30.2 26-30.2L26-30.2Q23.7-30.2 22.1-30.15 20.5-30.1 19.6-30L19.6-30Q18.8-29.95 18.8-27.85L18.8-27.85 18.8-5.1Q18.8-1.85 22.75-1.2L22.75-1.2Q24.4-0.9 24.4-0.35L24.4-0.35Q24.4 0.25 22.95 0.25L22.95 0.25ZM43.3 0.15L39.5-0.1 35.45 0.15Q34.45 0.15 34.45-0.35L34.45-0.35Q34.45-0.8 35.35-1.1L35.35-1.1Q36.25-1.4 37-1.75 37.75-2.1 37.75-3.25L37.75-3.25 37.75-28.3Q37.75-31.5 35.5-31.95L35.5-31.95Q35.1-32.05 35.1-32.6L35.1-32.6Q35.1-33.15 35.45-33.2L35.45-33.2Q36.75-33.5 41.25-35.2L41.25-35.2 41.35-35.25Q41.65-35.25 41.65-34.65L41.65-34.65Q41.65-34.35 41.6-34.2L41.6-34.2Q41.4-33.1 41.32-31.58 41.25-30.05 41.25-28.1L41.25-28.1 41.25-19.4Q41.25-18.1 41.65-17.55L41.65-17.55Q45.95-20.7 49.2-20.7L49.2-20.7Q51.65-20.7 53.27-18.75 54.9-16.8 54.9-13.9L54.9-13.9 54.9-3.4Q54.9-1.8 56.95-1.2L56.95-1.2Q58.1-0.8 58.1-0.35L58.1-0.35Q58.1 0.15 57.1 0.15L57.1 0.15 53.2-0.1 49.3 0.15Q48.3 0.15 48.3-0.35L48.3-0.35Q48.3-0.8 49.45-1.2L49.45-1.2Q51.4-1.8 51.4-3.4L51.4-3.4 51.4-13.6Q51.4-14.8 50.7-15.83 50-16.85 48.95-17.48 47.9-18.1 46.75-18.1L46.75-18.1Q44-18.1 42.6-17L42.6-17Q41.8-16.35 41.52-15.63 41.25-14.9 41.25-13.4L41.25-13.4 41.25-3.25Q41.35-1.7 43.15-1.2L43.15-1.2Q44.3-0.8 44.3-0.35L44.3-0.35Q44.3 0.15 43.3 0.15L43.3 0.15ZM76.84-3.55L76.84-3.55Q76.65-2.7 75.59-1.7 74.55-0.7 72.84 0 71.15 0.7 68.95 0.7L68.95 0.7Q66.75 0.7 64.87-0.68 63-2.05 61.87-4.45 60.75-6.85 60.75-9.9L60.75-9.9Q60.75-12.95 62.07-15.4 63.4-17.85 65.65-19.28 67.9-20.7 70.7-20.7L70.7-20.7Q73.7-20.7 75.42-19.45 77.15-18.2 77.15-16.05L77.15-16.05Q77.15-13.9 76.07-13.38 75-12.85 73.3-12.85L73.3-12.85 65.09-12.85Q64.4-12.85 64.12-12.53 63.85-12.2 63.85-11L63.85-11Q63.85-8.7 64.84-6.7 65.84-4.7 67.52-3.5 69.2-2.3 71.3-2.3L71.3-2.3Q74.34-2.3 76.09-4.5L76.09-4.5Q76.45-4.85 76.65-4.85L76.65-4.85Q77-4.85 77-4.35L77-4.35Q77-4 76.84-3.55ZM64.8-15.15L64.8-15.15Q64.8-14.4 65.75-14.4L65.75-14.4 69.84-14.4Q71-14.4 71.92-14.48 72.84-14.55 73.5-14.65L73.5-14.65Q74-14.7 74-16.1L74-16.1Q74-17.45 72.75-18.3 71.5-19.15 69.75-19.15L69.75-19.15Q68.55-19.15 67.42-18.48 66.3-17.8 65.55-16.88 64.8-15.95 64.8-15.15ZM111.74-8L111.74-8Q111.74-5.7 110.59-3.7 109.44-1.7 107.14-0.45 104.84 0.8 101.34 0.8L101.34 0.8Q97.19 0.8 94.64-0.4L94.64-0.4Q93.84-0.75 93.59-1.25L93.59-1.25Q92.69-3.15 92.69-7L92.69-7Q92.69-7.4 93.02-7.93 93.34-8.45 93.79-8.45L93.79-8.45Q94.19-8.45 95.24-5.15L95.24-5.15Q96.69-0.85 101.99-0.85L101.99-0.85Q104.54-0.85 106.04-2.4 107.54-3.95 107.54-6.6L107.54-6.6Q107.54-10.8 99.94-15.9L99.94-15.9Q96.89-17.95 95.24-20.05 93.59-22.15 93.59-25.2L93.59-25.2Q93.59-27.25 94.89-29.08 96.19-30.9 98.47-32.05 100.74-33.2 103.64-33.2L103.64-33.2Q106.24-33.2 107.79-32.7L107.79-32.7Q109.34-32.2 109.59-32.2L109.59-32.2Q110.09-32.2 110.37-31.25 110.64-30.3 110.77-29.08 110.89-27.85 110.89-26.95L110.89-26.95Q110.89-25.6 110.54-25.6L110.54-25.6Q109.09-25.6 108.79-27L108.79-27Q108.44-29.15 106.89-30.35 105.34-31.55 103.09-31.55L103.09-31.55Q100.79-31.55 99.12-30.08 97.44-28.6 97.44-26.15L97.44-26.15Q97.44-24.65 98.54-23.28 99.64-21.9 101.19-20.78 102.74-19.65 104.09-18.75L104.09-18.75Q111.74-13.8 111.74-8ZM123.69 0.15L119.89-0.1 115.84 0.15Q114.84 0.15 114.84-0.35L114.84-0.35Q114.84-0.8 115.74-1.1L115.74-1.1Q116.64-1.4 117.39-1.75 118.14-2.1 118.14-3.25L118.14-3.25 118.14-28.3Q118.14-31.5 115.89-31.95L115.89-31.95Q115.49-32.05 115.49-32.6L115.49-32.6Q115.49-33.15 115.84-33.2L115.84-33.2Q117.14-33.5 121.64-35.2L121.64-35.2 121.74-35.25Q122.04-35.25 122.04-34.65L122.04-34.65Q122.04-34.35 121.99-34.2L121.99-34.2Q121.79-33.1 121.71-31.58 121.64-30.05 121.64-28.1L121.64-28.1 121.64-19.4Q121.64-18.1 122.04-17.55L122.04-17.55Q126.34-20.7 129.59-20.7L129.59-20.7Q132.04-20.7 133.66-18.75 135.29-16.8 135.29-13.9L135.29-13.9 135.29-3.4Q135.29-1.8 137.34-1.2L137.34-1.2Q138.49-0.8 138.49-0.35L138.49-0.35Q138.49 0.15 137.49 0.15L137.49 0.15 133.59-0.1 129.69 0.15Q128.69 0.15 128.69-0.35L128.69-0.35Q128.69-0.8 129.84-1.2L129.84-1.2Q131.79-1.8 131.79-3.4L131.79-3.4 131.79-13.6Q131.79-14.8 131.09-15.83 130.39-16.85 129.34-17.48 128.29-18.1 127.14-18.1L127.14-18.1Q124.39-18.1 122.99-17L122.99-17Q122.19-16.35 121.91-15.63 121.64-14.9 121.64-13.4L121.64-13.4 121.64-3.25Q121.74-1.7 123.54-1.2L123.54-1.2Q124.69-0.8 124.69-0.35L124.69-0.35Q124.69 0.15 123.69 0.15L123.69 0.15ZM162.64-10.35L162.64-10.35Q162.64-7.45 161.31-4.93 159.99-2.4 157.46-0.85 154.94 0.7 151.34 0.7L151.34 0.7Q148.54 0.7 146.26-0.6 143.99-1.9 142.69-4.17 141.39-6.45 141.39-9.35L141.39-9.35Q141.39-11.5 142.24-13.53 143.09-15.55 144.61-17.18 146.14-18.8 148.09-19.75 150.04-20.7 152.24-20.7L152.24-20.7Q155.19-20.7 157.54-19.33 159.89-17.95 161.26-15.63 162.64-13.3 162.64-10.35ZM145.49-10.5L145.49-10.5Q145.49-7.95 146.41-5.73 147.34-3.5 148.91-2.15 150.49-0.8 152.39-0.8L152.39-0.8Q154.89-0.8 156.21-1.88 157.54-2.95 158.04-4.88 158.54-6.8 158.54-9.35L158.54-9.35Q158.54-11.95 157.61-14.18 156.69-16.4 155.11-17.78 153.54-19.15 151.49-19.15L151.49-19.15Q145.49-19.15 145.49-10.5ZM175.08 14.25L170.38 14 166.38 14.25Q165.33 14.25 165.33 13.75L165.33 13.75Q165.33 13.3 166.73 12.85L166.73 12.85Q168.18 12.4 168.38 11.9L168.38 11.9Q168.63 11.4 168.63 11L168.63 11 168.63-14.35Q168.63-14.95 168.36-15.73 168.08-16.5 167.58-17.18 167.08-17.85 166.33-18L166.33-18Q165.93-18.1 165.93-18.65L165.93-18.65Q165.93-19.2 166.28-19.25L166.28-19.25Q167.33-19.5 168.78-20 170.23-20.5 172.08-21.25L172.08-21.25 172.13-21.3 172.18-21.3Q172.48-21.3 172.48-20.85L172.48-20.85 172.23-17.85Q172.23-17.45 172.28-17.4L172.28-17.4Q172.93-18.05 174.31-18.8 175.68-19.55 177.33-20.13 178.98-20.7 180.38-20.7L180.38-20.7Q182.88-20.7 184.71-19.38 186.53-18.05 187.56-15.9 188.58-13.75 188.58-11.25L188.58-11.25Q188.58-8.95 187.71-6.8 186.83-4.65 185.28-2.98 183.73-1.3 181.68-0.3 179.63 0.7 177.33 0.7L177.33 0.7Q176.63 0.7 175.63 0.48 174.63 0.25 173.73-0.13 172.83-0.5 172.33-0.9L172.33-0.9Q172.13-0.9 172.13 1.65L172.13 1.65 172.13 11Q172.13 11.75 172.71 12.08 173.28 12.4 173.58 12.5L173.58 12.5Q173.68 12.55 173.91 12.6 174.13 12.65 174.38 12.7L174.38 12.7Q176.18 13.15 176.18 13.8L176.18 13.8Q176.18 14.25 175.08 14.25L175.08 14.25ZM173.58-2L173.58-2Q174.83-0.85 178.08-0.85L178.08-0.85Q179.98-0.85 181.56-2.25 183.13-3.65 183.88-5.5L183.88-5.5Q184.58-7.35 184.58-9.85L184.58-9.85Q184.58-12.35 183.86-14.25 183.13-16.15 181.98-17L181.98-17Q179.78-18.45 177.63-18.45L177.63-18.45Q175.38-18.45 173.86-17.3 172.33-16.15 172.18-13.45L172.18-13.45 172.13-10.25 172.13-8.7Q172.13-6.7 172.36-4.83 172.58-2.95 173.58-2Z" opacity="1" transform="matrix(1,0,0,1,0,0)" fill="#000000" class="wordmark-text-0" data-fill-palette-color="quaternary" id="text-0"></path></svg></g></svg></g><g transform="matrix(1,0,0,1,0,144.93145221013077)"><svg viewBox="0 0 395.52 37.11544978695861" height="37.11544978695861" width="395.52"><g transform="matrix(1,0,0,1,0,0)"><svg width="395.52" viewBox="2.75 -38 538.15 50.5" height="37.11544978695861" data-palette-color="#97978d"><path d="M2.75-18.75L2.75-18.75Q2.75-14.75 3.99-11.26 5.23-7.78 7.56-5.13 9.9-2.48 13.24-0.99 16.57 0.5 20.75 0.5L20.75 0.5Q24.75 0.5 28.05-0.99 31.35-2.48 33.75-5.13 36.15-7.78 37.45-11.26 38.75-14.75 38.75-18.75L38.75-18.75Q38.75-22.75 37.51-26.24 36.27-29.73 33.94-32.38 31.6-35.02 28.26-36.51 24.93-38 20.75-38L20.75-38Q16.57-38 13.24-36.51 9.9-35.02 7.56-32.38 5.23-29.73 3.99-26.24 2.75-22.75 2.75-18.75ZM8.5-18.75L8.5-18.75Q8.5-22.18 9.2-25.2 9.9-28.23 11.36-30.54 12.83-32.85 15.16-34.18 17.5-35.5 20.75-35.5L20.75-35.5Q24.03-35.5 26.35-34.18 28.68-32.85 30.14-30.54 31.6-28.23 32.3-25.2 33-22.18 33-18.75L33-18.75Q33-15.35 32.38-12.31 31.75-9.28 30.33-6.96 28.9-4.65 26.55-3.33 24.2-2 20.75-2L20.75-2Q17.5-2 15.16-3.33 12.83-4.65 11.36-6.96 9.9-9.28 9.2-12.31 8.5-15.35 8.5-18.75ZM66.75-23.25L70.13-23.25Q70.43-23.25 70.58-23.18 70.73-23.1 70.73-22.83L70.73-22.83 70.73-3.45Q70.73-2.98 70.55-2.86 70.38-2.75 69.88-2.75L69.88-2.75 67.13-2.75Q66.65-2.75 66.44-2.61 66.23-2.48 66.23-1.95L66.23-1.95 66.23-0.8Q66.23-0.33 66.35-0.16 66.48 0 66.93 0L66.93 0 79.03 0Q79.45 0 79.59-0.15 79.73-0.3 79.73-0.75L79.73-0.75 79.73-1.9Q79.73-2.45 79.54-2.6 79.35-2.75 78.85-2.75L78.85-2.75 76.28-2.75Q75.7-2.75 75.47-2.98 75.23-3.2 75.23-3.78L75.23-3.78 75.23-14.15Q75.23-16.73 76.2-18.89 77.18-21.05 78.98-22.35 80.78-23.65 83.23-23.65L83.23-23.65Q85.7-23.65 86.84-22.16 87.98-20.68 87.98-17.9L87.98-17.9 87.98-3.73Q87.98-3.08 87.78-2.91 87.58-2.75 86.98-2.75L86.98-2.75 84.1-2.75Q83.7-2.75 83.59-2.6 83.48-2.45 83.48-2.02L83.48-2.02 83.48-0.78Q83.48-0.38 83.55-0.19 83.63 0 84.03 0L84.03 0 96.2 0Q96.63 0 96.8-0.08 96.98-0.15 96.98-0.55L96.98-0.55 96.98-2Q96.98-2.43 96.87-2.59 96.75-2.75 96.33-2.75L96.33-2.75 93.38-2.75Q92.73-2.75 92.6-2.99 92.48-3.23 92.48-3.88L92.48-3.88 92.48-18.45Q92.48-21.13 91.78-22.91 91.08-24.7 89.32-25.6 87.55-26.5 84.38-26.5L84.38-26.5Q81.13-26.5 79.03-25.14 76.93-23.78 75.73-21.78L75.73-21.78Q75.48-21.38 75.35-21.3 75.23-21.23 75.23-22.2L75.23-22.2 75.23-25.13Q75.23-25.48 75.05-25.74 74.88-26 74.45-26L74.45-26 66.7-26Q66.43-26 66.33-25.86 66.23-25.73 66.23-25.43L66.23-25.43 66.23-23.88Q66.23-23.55 66.33-23.4 66.43-23.25 66.75-23.25L66.75-23.25ZM122.11-12.5L122.11-12.5Q122.11-9 123.44-6.04 124.78-3.08 127.38-1.29 129.98 0.5 133.76 0.5L133.76 0.5Q136.93 0.5 139.16-0.6 141.38-1.7 142.78-3.64 144.18-5.58 144.88-8.13L144.88-8.13Q144.96-8.4 144.86-8.53 144.76-8.65 144.38-8.65L144.38-8.65 142.93-8.65Q142.56-8.65 142.46-8.49 142.36-8.33 142.26-8.05L142.26-8.05Q141.26-5.3 139.29-3.63 137.33-1.95 134.36-1.95L134.36-1.95Q131.78-1.95 130.19-3.39 128.61-4.83 127.88-7.2 127.16-9.58 127.16-12.33L127.16-12.33Q127.16-12.75 127.37-12.9 127.58-13.05 127.98-13.05L127.98-13.05 144.06-13.05Q144.58-13.05 144.77-13.16 144.96-13.28 144.96-13.78L144.96-13.78Q144.96-15.55 144.61-17.36 144.26-19.18 143.48-20.81 142.71-22.45 141.44-23.74 140.18-25.03 138.37-25.76 136.56-26.5 134.11-26.5L134.11-26.5Q130.08-26.5 127.42-24.66 124.76-22.83 123.43-19.66 122.11-16.5 122.11-12.5ZM139.26-15.2L127.96-15.2Q127.51-15.2 127.38-15.33 127.26-15.45 127.26-15.83L127.26-15.83Q127.26-17.8 128.01-19.75 128.76-21.7 130.28-23 131.81-24.3 134.11-24.3L134.11-24.3Q135.63-24.3 136.73-23.43 137.83-22.55 138.56-21.19 139.28-19.83 139.63-18.34 139.98-16.85 139.98-15.6L139.98-15.6Q139.98-15.35 139.87-15.28 139.76-15.2 139.26-15.2L139.26-15.2ZM234.69-26.18L234.69-26.18Q234.74-25.55 234.79-25.4 234.84-25.25 235.51-25.25L235.51-25.25 236.61-25.25Q237.09-25.25 237.27-25.34 237.46-25.43 237.46-25.9L237.46-25.9 237.46-36.68Q237.46-37.18 237.35-37.34 237.24-37.5 236.76-37.5L236.76-37.5 235.16-37.5Q234.86-37.5 234.77-37.45 234.69-37.4 234.59-37.2L234.59-37.2 233.81-35.43Q233.54-34.75 233.24-34.77 232.94-34.8 232.51-35.18L232.51-35.18Q231.01-36.48 228.92-37.24 226.84-38 224.46-38L224.46-38Q222.01-38 219.84-37.39 217.66-36.77 216-35.5 214.34-34.23 213.4-32.3 212.46-30.38 212.46-27.75L212.46-27.75Q212.46-24.75 213.65-22.9 214.84-21.05 216.8-19.96 218.76-18.88 221.11-18.21 223.46-17.55 225.81-16.96 228.16-16.38 230.12-15.51 232.09-14.65 233.27-13.19 234.46-11.73 234.46-9.25L234.46-9.25Q234.46-7.53 233.5-5.8 232.54-4.08 230.45-2.94 228.36-1.8 224.96-1.8L224.96-1.8Q221.56-1.8 219.14-3.34 216.71-4.88 215.35-7.2 213.99-9.53 213.76-11.9L213.76-11.9Q213.74-12.33 213.6-12.54 213.46-12.75 212.96-12.75L212.96-12.75 211.91-12.75Q211.39-12.75 211.17-12.66 210.96-12.58 210.96-12.05L210.96-12.05 210.96-0.6Q210.96-0.05 211.15 0.1 211.34 0.25 211.91 0.25L211.91 0.25 212.69 0.25Q213.41 0.25 213.6 0.15 213.79 0.05 213.99-0.45L213.99-0.45 214.76-2.38Q215.06-3.13 215.29-3.18 215.51-3.23 216.06-2.73L216.06-2.73Q217.76-1.23 220.2-0.24 222.64 0.75 225.46 0.75L225.46 0.75Q229.74 0.75 232.76-0.6 235.79-1.95 237.37-4.48 238.96-7 238.96-10.5L238.96-10.5Q238.96-13.73 237.77-15.74 236.59-17.75 234.62-18.95 232.66-20.15 230.31-20.88 227.96-21.6 225.61-22.19 223.26-22.78 221.3-23.55 219.34-24.33 218.15-25.66 216.96-27 216.96-29.25L216.96-29.25Q216.96-31.85 218.79-33.65 220.61-35.45 224.96-35.45L224.96-35.45Q227.66-35.45 229.79-34.26 231.91-33.08 233.2-30.99 234.49-28.9 234.69-26.18ZM281.29-4.88L281.29-4.88Q281.41-5.2 281.3-5.33 281.19-5.45 280.89-5.55L280.89-5.55 280.09-5.83Q279.69-5.98 279.55-5.9 279.41-5.83 279.24-5.45L279.24-5.45Q278.59-4.03 277.73-3.26 276.86-2.5 275.79-2.5L275.79-2.5Q274.79-2.5 274.19-3.18 273.59-3.85 273.59-5.35L273.59-5.35 273.59-22.43Q273.59-23 273.84-23.13 274.09-23.25 274.61-23.25L274.61-23.25 280.11-23.25Q280.56-23.25 280.75-23.34 280.94-23.43 280.94-23.88L280.94-23.88 280.94-25.18Q280.94-25.7 280.78-25.85 280.61-26 280.11-26L280.11-26 274.56-26Q274.09-26 273.84-26.13 273.59-26.25 273.59-26.78L273.59-26.78 273.59-32.27Q273.59-33 272.94-33L272.94-33 271.59-33Q271.04-33 270.91-32.85 270.79-32.7 270.69-32.27L270.69-32.27Q270.19-30.1 269.76-28.83 269.34-27.55 268.79-26.95 268.24-26.35 267.39-26.18 266.54-26 265.19-26L265.19-26Q264.71-26 264.58-25.91 264.44-25.83 264.44-25.35L264.44-25.35 264.44-24Q264.44-23.5 264.61-23.38 264.79-23.25 265.31-23.25L265.31-23.25 268.29-23.25Q268.74-23.25 268.91-23.05 269.09-22.85 269.09-22.4L269.09-22.4 269.09-4.3Q269.09-2.25 270.26-0.83 271.44 0.6 274.14 0.6L274.14 0.6Q276.09 0.6 277.5-0.14 278.91-0.88 279.85-2.13 280.79-3.38 281.29-4.88ZM312.04-13.5L312.04-13.5Q312.04-15.45 312.33-17.36 312.62-19.28 313.34-20.83 314.07-22.38 315.38-23.31 316.69-24.25 318.74-24.25L318.74-24.25Q321.47-24.25 322.92-22.6 324.37-20.95 324.9-18.28 325.44-15.6 325.44-12.5L325.44-12.5Q325.44-10.55 325.15-8.64 324.87-6.73 324.14-5.18 323.42-3.63 322.1-2.69 320.79-1.75 318.74-1.75L318.74-1.75Q316.02-1.75 314.57-3.4 313.12-5.05 312.58-7.73 312.04-10.4 312.04-13.5ZM306.79-12.5L306.79-12.5Q306.79-9 308.1-6.04 309.42-3.08 312.07-1.29 314.72 0.5 318.74 0.5L318.74 0.5Q322.77 0.5 325.42-1.34 328.07-3.18 329.38-6.34 330.69-9.5 330.69-13.5L330.69-13.5Q330.69-17 329.38-19.96 328.07-22.93 325.42-24.71 322.77-26.5 318.74-26.5L318.74-26.5Q314.72-26.5 312.07-24.66 309.42-22.83 308.1-19.66 306.79-16.5 306.79-12.5ZM365.42-13L365.42-13Q365.42-15.85 366.32-18.34 367.22-20.83 368.88-22.36 370.54-23.9 372.82-23.9L372.82-23.9Q374.92-23.9 376.49-22.36 378.07-20.83 378.94-18.34 379.82-15.85 379.82-13L379.82-13Q379.82-10.15 378.94-7.66 378.07-5.18 376.49-3.64 374.92-2.1 372.82-2.1L372.82-2.1Q370.54-2.1 368.88-3.64 367.22-5.18 366.32-7.66 365.42-10.15 365.42-13ZM356.42-25.2L356.42-24.25Q356.42-23.7 356.56-23.48 356.69-23.25 357.29-23.25L357.29-23.25 359.79-23.25Q360.42-23.25 360.67-23.1 360.92-22.95 360.92-22.3L360.92-22.3 360.92 8.6Q360.92 9.3 360.78 9.53 360.64 9.75 359.94 9.75L359.94 9.75 357.09 9.75Q356.62 9.75 356.52 9.93 356.42 10.1 356.42 10.6L356.42 10.6 356.42 11.6Q356.42 12.08 356.56 12.29 356.69 12.5 357.19 12.5L357.19 12.5 369.14 12.5Q369.67 12.5 369.79 12.39 369.92 12.28 369.92 11.73L369.92 11.73 369.92 10.7Q369.92 10.1 369.77 9.93 369.62 9.75 369.04 9.75L369.04 9.75 366.59 9.75Q365.84 9.75 365.63 9.56 365.42 9.38 365.42 8.6L365.42 8.6 365.42-1.95Q365.42-3.95 365.64-4.11 365.87-4.28 366.42-3.45L366.42-3.45Q367.67-1.6 369.53-0.58 371.39 0.45 373.72 0.45L373.72 0.45Q376.69 0.45 379.22-1.14 381.74-2.73 383.28-5.74 384.82-8.75 384.82-13L384.82-13Q384.82-17.25 383.28-20.28 381.74-23.3 379.22-24.9 376.69-26.5 373.72-26.5L373.72-26.5Q371.19-26.5 369.14-25.19 367.09-23.88 365.87-21.65L365.87-21.65Q365.64-21.25 365.53-21.31 365.42-21.38 365.42-22.3L365.42-22.3 365.42-25.15Q365.42-25.73 365.24-25.86 365.07-26 364.49-26L364.49-26 357.34-26Q356.87-26 356.64-25.88 356.42-25.75 356.42-25.2L356.42-25.2ZM489.05-18.5L474.7-18.5Q474.12-18.5 473.95-18.32 473.77-18.15 473.77-17.55L473.77-17.55 473.77-16.15Q473.77-15.53 473.97-15.39 474.17-15.25 474.8-15.25L474.8-15.25 479-15.25Q479.5-15.25 479.76-15.14 480.02-15.03 480.02-14.45L480.02-14.45 480.02-10Q480.02-9.53 479.96-9.22 479.9-8.93 479.77-8.6L479.77-8.6Q479.15-7.13 477.75-5.65 476.35-4.17 474.12-3.21 471.9-2.25 468.77-2.25L468.77-2.25Q464.55-2.25 461.71-4.48 458.87-6.7 457.45-10.45 456.02-14.2 456.02-18.75L456.02-18.75Q456.02-23.3 457.71-27.04 459.4-30.78 462.46-32.99 465.52-35.2 469.62-35.2L469.62-35.2Q473.95-35.2 476.51-33.81 479.07-32.43 480.32-30.24 481.57-28.05 481.92-25.65L481.92-25.65Q482-25.1 482.15-24.93 482.3-24.75 482.95-24.75L482.95-24.75 484.15-24.75Q484.57-24.75 484.67-25.1 484.77-25.45 484.77-25.85L484.77-25.85 484.77-36.85Q484.77-37.18 484.59-37.34 484.4-37.5 484.1-37.5L484.1-37.5 483-37.5Q482.67-37.5 482.52-37.23 482.37-36.95 482.25-36.6L482.25-36.6 481.45-34.1Q481.27-33.5 481.09-33.4 480.9-33.3 480.47-33.73L480.47-33.73Q478.57-35.73 475.81-36.86 473.05-38 469.27-38L469.27-38Q465.47-38 462.05-36.58 458.62-35.15 455.97-32.56 453.32-29.98 451.8-26.45 450.27-22.93 450.27-18.75L450.27-18.75Q450.27-14.58 451.65-11.05 453.02-7.53 455.5-4.94 457.97-2.35 461.3-0.93 464.62 0.5 468.52 0.5L468.52 0.5Q472.42 0.5 475.36-0.45 478.3-1.4 480.34-2.94 482.37-4.48 483.55-6.29 484.72-8.1 485.12-9.8L485.12-9.8Q485.25-10.3 485.26-10.86 485.27-11.43 485.27-12.05L485.27-12.05 485.27-14.3Q485.27-14.88 485.41-15.06 485.55-15.25 486.1-15.25L486.1-15.25 489.35-15.25Q489.92-15.25 490.1-15.4 490.27-15.55 490.27-16.1L490.27-16.1 490.27-17.35Q490.27-18.15 490.04-18.32 489.8-18.5 489.05-18.5L489.05-18.5ZM522.25-13.5L522.25-13.5Q522.25-15.45 522.54-17.36 522.83-19.28 523.55-20.83 524.28-22.38 525.59-23.31 526.9-24.25 528.95-24.25L528.95-24.25Q531.68-24.25 533.13-22.6 534.58-20.95 535.11-18.28 535.65-15.6 535.65-12.5L535.65-12.5Q535.65-10.55 535.36-8.64 535.08-6.73 534.35-5.18 533.63-3.63 532.31-2.69 531-1.75 528.95-1.75L528.95-1.75Q526.23-1.75 524.78-3.4 523.33-5.05 522.79-7.73 522.25-10.4 522.25-13.5ZM517-12.5L517-12.5Q517-9 518.31-6.04 519.63-3.08 522.28-1.29 524.93 0.5 528.95 0.5L528.95 0.5Q532.98 0.5 535.63-1.34 538.28-3.18 539.59-6.34 540.9-9.5 540.9-13.5L540.9-13.5Q540.9-17 539.59-19.96 538.28-22.93 535.63-24.71 532.98-26.5 528.95-26.5L528.95-26.5Q524.93-26.5 522.28-24.66 519.63-22.83 518.31-19.66 517-16.5 517-12.5Z" opacity="1" transform="matrix(1,0,0,1,0,0)" fill="#ffffff" class="slogan-text-1" data-fill-palette-color="secondary" id="text-1"></path></svg></g></svg></g></svg></g></svg></g><g transform="matrix(1,0,0,1,146.47616811216145,0)"><svg viewBox="0 0 102.5676637756771 167.72587903998502" height="167.72587903998502" width="102.5676637756771"><g><svg xmlns="http://www.w3.org/2000/svg" xmlns:xlink="http://www.w3.org/1999/xlink" version="1.1" x="0" y="0" viewBox="25.10000000000001 8.399999999999999 49.89999999999999 81.6" style="enable-background:new 0 0 100 100;" xml:space="preserve" height="167.72587903998502" width="102.5676637756771" class="icon-icon-0" data-fill-palette-color="accent" id="icon-0"><path d="M68.2 33.3c-0.9 0-1.7 0.2-2.5 0.5-0.8-2.9-3.4-5-6.6-5-1.2 0-2.4 0.3-3.3 0.9-1.2-1.9-3.3-3.2-5.7-3.2-0.8 0-1.6 0.1-2.3 0.4V15.2c0-3.8-3.1-6.8-6.8-6.8s-6.8 3.1-6.8 6.8v22.9c-5.2 1.1-9.1 5.6-9.1 11.1v4.5c0 8.4 4.3 16.3 11.3 20.9v13.1c0 1.3 1 2.3 2.3 2.3s2.3-1 2.3-2.3V74.1c0-0.1 0-0.3 0-0.4 0.2-0.9-0.3-1.9-1.1-2.3C33.6 67.8 29.6 61 29.6 53.7v-4.5c0-3.8 3.1-6.8 6.8-6.8h10.9c-0.9 2.6-3.5 4.5-6.4 4.5h-2.3c-1.3 0-2.3 1-2.3 2.3V56c0 1.3 1 2.3 2.3 2.3 3.8 0 6.8 3.1 6.8 6.8 0 1.3 1 2.3 2.3 2.3 1.3 0 2.3-1 2.3-2.3 0-5.5-3.9-10.1-9.1-11.1v-2.5c0.9 0 1.7-0.1 2.6-0.3 0.8 2.8 3.4 4.8 6.5 4.8 1.7 0 3.3-0.7 4.5-1.7 1.2 1.1 2.8 1.7 4.5 1.7 1.7 0 3.3-0.7 4.5-1.7 1.2 1.1 2.8 1.7 4.5 1.7 0.8 0 1.5-0.1 2.2-0.4-0.6 6.5-4.4 12.5-10.1 15.8-0.8 0.5-1.2 1.4-1.1 2.3 0 0.1 0 0.3 0 0.4v13.6c0 1.3 1 2.3 2.3 2.3 1.3 0 2.3-1 2.3-2.3V74.6C70.7 70 75 62.1 75 53.7V40.1C75 36.4 71.9 33.3 68.2 33.3zM41 12.9c1.3 0 2.3 1 2.3 2.3v22.7h-4.5V15.2C38.7 13.9 39.7 12.9 41 12.9zM50.1 51.4c-1.3 0-2.3-1-2.3-2.3 0 0 0 0 0 0 2.7-2.1 4.5-5.4 4.5-9.1 0-1.3-1-2.3-2.3-2.3h-2.3v-4.5c0-1.2 1-2.3 2.3-2.3 1.3 0 2.3 1 2.3 2.3v15.9C52.3 50.4 51.3 51.4 50.1 51.4zM59.1 51.4c-1.3 0-2.3-1-2.3-2.3V35.6c0-1.3 1-2.3 2.3-2.3 1.3 0 2.3 1 2.3 2.3v13.6C61.4 50.4 60.4 51.4 59.1 51.4zM68.2 51.4c-1.3 0-2.3-1-2.3-2.3v-9.1c0-1.2 1-2.3 2.3-2.3s2.3 1 2.3 2.3v9.1C70.5 50.4 69.4 51.4 68.2 51.4z" fill="#ffffff" data-fill-palette-color="accent"></path></svg></g></svg></g><g></g></svg></g><defs></defs></svg><rect width="266.0510629222116" height="247.2" fill="none" stroke="none" visibility="hidden"></rect></g></svg></g></svg>